<mxfile host="app.diagrams.net" modified="2023-06-15T05:53:28.552Z" agent="Mozilla/5.0 (Windows NT 10.0; Win64; x64) AppleWebKit/537.36 (KHTML, like Gecko) Chrome/114.0.0.0 Safari/537.36" etag="Woa7rTEx18WtbNINIs5T" version="21.3.8" type="github">
  <diagram id="1guqVv_iPd39AEHyRnJ2" name="Page-1">
    <mxGraphModel dx="1003" dy="714" grid="1" gridSize="10" guides="1" tooltips="1" connect="1" arrows="1" fold="1" page="1" pageScale="1" pageWidth="1169" pageHeight="827" math="0" shadow="0">
      <root>
        <mxCell id="0" />
        <mxCell id="1" parent="0" />
        <mxCell id="3vVMbSCnS11a-lVRG27g-20" value="Fork" style="edgeStyle=orthogonalEdgeStyle;rounded=0;orthogonalLoop=1;jettySize=auto;html=1;entryX=0.5;entryY=0;entryDx=0;entryDy=0;fontSize=14;" parent="1" source="3vVMbSCnS11a-lVRG27g-4" target="3vVMbSCnS11a-lVRG27g-8" edge="1">
          <mxGeometry relative="1" as="geometry" />
        </mxCell>
        <mxCell id="3vVMbSCnS11a-lVRG27g-4" value="&lt;b&gt;上游仓库&lt;br&gt;someone/someproject&lt;/b&gt;" style="swimlane;fontStyle=0;childLayout=stackLayout;horizontal=1;startSize=30;horizontalStack=0;resizeParent=1;resizeParentMax=0;resizeLast=0;collapsible=1;marginBottom=0;whiteSpace=wrap;html=1;fillColor=#dae8fc;strokeColor=#6c8ebf;" parent="1" vertex="1">
          <mxGeometry x="140" y="150" width="140" height="120" as="geometry" />
        </mxCell>
        <mxCell id="3vVMbSCnS11a-lVRG27g-5" value="master" style="text;strokeColor=none;fillColor=none;align=left;verticalAlign=middle;spacingLeft=4;spacingRight=4;overflow=hidden;points=[[0,0.5],[1,0.5]];portConstraint=eastwest;rotatable=0;whiteSpace=wrap;html=1;" parent="3vVMbSCnS11a-lVRG27g-4" vertex="1">
          <mxGeometry y="30" width="140" height="30" as="geometry" />
        </mxCell>
        <mxCell id="3vVMbSCnS11a-lVRG27g-6" value="branch2" style="text;strokeColor=none;fillColor=none;align=left;verticalAlign=middle;spacingLeft=4;spacingRight=4;overflow=hidden;points=[[0,0.5],[1,0.5]];portConstraint=eastwest;rotatable=0;whiteSpace=wrap;html=1;" parent="3vVMbSCnS11a-lVRG27g-4" vertex="1">
          <mxGeometry y="60" width="140" height="30" as="geometry" />
        </mxCell>
        <mxCell id="3vVMbSCnS11a-lVRG27g-7" value="branch3" style="text;strokeColor=none;fillColor=none;align=left;verticalAlign=middle;spacingLeft=4;spacingRight=4;overflow=hidden;points=[[0,0.5],[1,0.5]];portConstraint=eastwest;rotatable=0;whiteSpace=wrap;html=1;" parent="3vVMbSCnS11a-lVRG27g-4" vertex="1">
          <mxGeometry y="90" width="140" height="30" as="geometry" />
        </mxCell>
        <mxCell id="3vVMbSCnS11a-lVRG27g-8" value="&lt;b&gt;下游仓库 (Fork)&lt;br&gt;myuser/someproject&lt;/b&gt;" style="swimlane;fontStyle=0;childLayout=stackLayout;horizontal=1;startSize=30;horizontalStack=0;resizeParent=1;resizeParentMax=0;resizeLast=0;collapsible=1;marginBottom=0;whiteSpace=wrap;html=1;fillColor=#d5e8d4;strokeColor=#82b366;" parent="1" vertex="1">
          <mxGeometry x="140" y="330" width="140" height="120" as="geometry">
            <mxRectangle x="330" y="90" width="120" height="30" as="alternateBounds" />
          </mxGeometry>
        </mxCell>
        <mxCell id="3vVMbSCnS11a-lVRG27g-9" value="master" style="text;strokeColor=none;fillColor=none;align=left;verticalAlign=middle;spacingLeft=4;spacingRight=4;overflow=hidden;points=[[0,0.5],[1,0.5]];portConstraint=eastwest;rotatable=0;whiteSpace=wrap;html=1;" parent="3vVMbSCnS11a-lVRG27g-8" vertex="1">
          <mxGeometry y="30" width="140" height="30" as="geometry" />
        </mxCell>
        <mxCell id="3vVMbSCnS11a-lVRG27g-10" value="branch2" style="text;strokeColor=none;fillColor=none;align=left;verticalAlign=middle;spacingLeft=4;spacingRight=4;overflow=hidden;points=[[0,0.5],[1,0.5]];portConstraint=eastwest;rotatable=0;whiteSpace=wrap;html=1;" parent="3vVMbSCnS11a-lVRG27g-8" vertex="1">
          <mxGeometry y="60" width="140" height="30" as="geometry" />
        </mxCell>
        <mxCell id="3vVMbSCnS11a-lVRG27g-11" value="branch3" style="text;strokeColor=none;fillColor=none;align=left;verticalAlign=middle;spacingLeft=4;spacingRight=4;overflow=hidden;points=[[0,0.5],[1,0.5]];portConstraint=eastwest;rotatable=0;whiteSpace=wrap;html=1;" parent="3vVMbSCnS11a-lVRG27g-8" vertex="1">
          <mxGeometry y="90" width="140" height="30" as="geometry" />
        </mxCell>
        <mxCell id="3vVMbSCnS11a-lVRG27g-21" value="1. 创建 Fork" style="text;html=1;align=center;verticalAlign=middle;resizable=0;points=[];autosize=1;strokeColor=none;fillColor=none;fontSize=14;" parent="1" vertex="1">
          <mxGeometry x="160" y="500" width="100" height="30" as="geometry" />
        </mxCell>
        <mxCell id="3vVMbSCnS11a-lVRG27g-36" value="提交 Commits" style="edgeStyle=orthogonalEdgeStyle;rounded=0;orthogonalLoop=1;jettySize=auto;html=1;entryX=0.5;entryY=0;entryDx=0;entryDy=0;fontSize=14;" parent="1" source="3vVMbSCnS11a-lVRG27g-22" target="3vVMbSCnS11a-lVRG27g-30" edge="1">
          <mxGeometry relative="1" as="geometry" />
        </mxCell>
        <mxCell id="3vVMbSCnS11a-lVRG27g-22" value="下游仓库 (Fork)" style="swimlane;fontStyle=0;childLayout=stackLayout;horizontal=1;startSize=30;horizontalStack=0;resizeParent=1;resizeParentMax=0;resizeLast=0;collapsible=1;marginBottom=0;whiteSpace=wrap;html=1;fillColor=#d5e8d4;strokeColor=#82b366;" parent="1" vertex="1">
          <mxGeometry x="355" y="120" width="175" height="150" as="geometry">
            <mxRectangle x="330" y="90" width="120" height="30" as="alternateBounds" />
          </mxGeometry>
        </mxCell>
        <mxCell id="3vVMbSCnS11a-lVRG27g-29" value="创建分支" style="edgeStyle=orthogonalEdgeStyle;rounded=0;orthogonalLoop=1;jettySize=auto;html=1;entryX=1;entryY=0.5;entryDx=0;entryDy=0;fontSize=14;exitX=1;exitY=0.5;exitDx=0;exitDy=0;" parent="3vVMbSCnS11a-lVRG27g-22" source="3vVMbSCnS11a-lVRG27g-23" target="3vVMbSCnS11a-lVRG27g-26" edge="1">
          <mxGeometry relative="1" as="geometry">
            <Array as="points">
              <mxPoint x="195" y="45" />
              <mxPoint x="195" y="135" />
            </Array>
          </mxGeometry>
        </mxCell>
        <mxCell id="3vVMbSCnS11a-lVRG27g-23" value="master" style="text;strokeColor=#6c8ebf;fillColor=#dae8fc;align=left;verticalAlign=middle;spacingLeft=4;spacingRight=4;overflow=hidden;points=[[0,0.5],[1,0.5]];portConstraint=eastwest;rotatable=0;whiteSpace=wrap;html=1;" parent="3vVMbSCnS11a-lVRG27g-22" vertex="1">
          <mxGeometry y="30" width="175" height="30" as="geometry" />
        </mxCell>
        <mxCell id="3vVMbSCnS11a-lVRG27g-24" value="branch2" style="text;strokeColor=none;fillColor=none;align=left;verticalAlign=middle;spacingLeft=4;spacingRight=4;overflow=hidden;points=[[0,0.5],[1,0.5]];portConstraint=eastwest;rotatable=0;whiteSpace=wrap;html=1;" parent="3vVMbSCnS11a-lVRG27g-22" vertex="1">
          <mxGeometry y="60" width="175" height="30" as="geometry" />
        </mxCell>
        <mxCell id="3vVMbSCnS11a-lVRG27g-25" value="branch3" style="text;strokeColor=none;fillColor=none;align=left;verticalAlign=middle;spacingLeft=4;spacingRight=4;overflow=hidden;points=[[0,0.5],[1,0.5]];portConstraint=eastwest;rotatable=0;whiteSpace=wrap;html=1;" parent="3vVMbSCnS11a-lVRG27g-22" vertex="1">
          <mxGeometry y="90" width="175" height="30" as="geometry" />
        </mxCell>
        <mxCell id="3vVMbSCnS11a-lVRG27g-26" value="&lt;b&gt;my-branch&lt;/b&gt;" style="text;strokeColor=#82b366;fillColor=#d5e8d4;align=left;verticalAlign=middle;spacingLeft=4;spacingRight=4;overflow=hidden;points=[[0,0.5],[1,0.5]];portConstraint=eastwest;rotatable=0;whiteSpace=wrap;html=1;strokeWidth=2;fontSize=14;opacity=50;" parent="3vVMbSCnS11a-lVRG27g-22" vertex="1">
          <mxGeometry y="120" width="175" height="30" as="geometry" />
        </mxCell>
        <mxCell id="3vVMbSCnS11a-lVRG27g-30" value="下游仓库 (Fork)" style="swimlane;fontStyle=0;childLayout=stackLayout;horizontal=1;startSize=30;horizontalStack=0;resizeParent=1;resizeParentMax=0;resizeLast=0;collapsible=1;marginBottom=0;whiteSpace=wrap;html=1;fillColor=#d5e8d4;strokeColor=#82b366;" parent="1" vertex="1">
          <mxGeometry x="355" y="330" width="175" height="150" as="geometry">
            <mxRectangle x="330" y="90" width="120" height="30" as="alternateBounds" />
          </mxGeometry>
        </mxCell>
        <mxCell id="3vVMbSCnS11a-lVRG27g-32" value="master" style="text;strokeColor=none;fillColor=none;align=left;verticalAlign=middle;spacingLeft=4;spacingRight=4;overflow=hidden;points=[[0,0.5],[1,0.5]];portConstraint=eastwest;rotatable=0;whiteSpace=wrap;html=1;" parent="3vVMbSCnS11a-lVRG27g-30" vertex="1">
          <mxGeometry y="30" width="175" height="30" as="geometry" />
        </mxCell>
        <mxCell id="3vVMbSCnS11a-lVRG27g-33" value="branch2" style="text;strokeColor=none;fillColor=none;align=left;verticalAlign=middle;spacingLeft=4;spacingRight=4;overflow=hidden;points=[[0,0.5],[1,0.5]];portConstraint=eastwest;rotatable=0;whiteSpace=wrap;html=1;" parent="3vVMbSCnS11a-lVRG27g-30" vertex="1">
          <mxGeometry y="60" width="175" height="30" as="geometry" />
        </mxCell>
        <mxCell id="3vVMbSCnS11a-lVRG27g-34" value="branch3" style="text;strokeColor=none;fillColor=none;align=left;verticalAlign=middle;spacingLeft=4;spacingRight=4;overflow=hidden;points=[[0,0.5],[1,0.5]];portConstraint=eastwest;rotatable=0;whiteSpace=wrap;html=1;" parent="3vVMbSCnS11a-lVRG27g-30" vertex="1">
          <mxGeometry y="90" width="175" height="30" as="geometry" />
        </mxCell>
        <mxCell id="3vVMbSCnS11a-lVRG27g-35" value="&lt;b&gt;my-branch（发生改动）&lt;/b&gt;" style="text;strokeColor=#82b366;fillColor=#d5e8d4;align=left;verticalAlign=middle;spacingLeft=4;spacingRight=4;overflow=hidden;points=[[0,0.5],[1,0.5]];portConstraint=eastwest;rotatable=0;whiteSpace=wrap;html=1;strokeWidth=2;fontSize=14;opacity=50;" parent="3vVMbSCnS11a-lVRG27g-30" vertex="1">
          <mxGeometry y="120" width="175" height="30" as="geometry" />
        </mxCell>
        <mxCell id="3vVMbSCnS11a-lVRG27g-37" value="2. 创建独立分支并提交 Commits" style="text;html=1;align=center;verticalAlign=middle;resizable=0;points=[];autosize=1;strokeColor=none;fillColor=none;fontSize=14;" parent="1" vertex="1">
          <mxGeometry x="327.5" y="500" width="230" height="30" as="geometry" />
        </mxCell>
        <mxCell id="3vVMbSCnS11a-lVRG27g-47" value="提交合并请求" style="edgeStyle=orthogonalEdgeStyle;rounded=0;orthogonalLoop=1;jettySize=auto;html=1;exitX=0.5;exitY=1;exitDx=0;exitDy=0;fontSize=14;entryX=0.5;entryY=0;entryDx=0;entryDy=0;" parent="1" source="3vVMbSCnS11a-lVRG27g-38" target="SuPHsCyRzFUluhuoWeei-1" edge="1">
          <mxGeometry relative="1" as="geometry">
            <mxPoint x="688" y="280" as="targetPoint" />
          </mxGeometry>
        </mxCell>
        <mxCell id="3vVMbSCnS11a-lVRG27g-38" value="下游仓库 (Fork)" style="swimlane;fontStyle=0;childLayout=stackLayout;horizontal=1;startSize=30;horizontalStack=0;resizeParent=1;resizeParentMax=0;resizeLast=0;collapsible=1;marginBottom=0;whiteSpace=wrap;html=1;fillColor=#d5e8d4;strokeColor=#82b366;" parent="1" vertex="1">
          <mxGeometry x="600" y="80" width="175" height="150" as="geometry">
            <mxRectangle x="330" y="90" width="120" height="30" as="alternateBounds" />
          </mxGeometry>
        </mxCell>
        <mxCell id="3vVMbSCnS11a-lVRG27g-39" value="master" style="text;strokeColor=none;fillColor=none;align=left;verticalAlign=middle;spacingLeft=4;spacingRight=4;overflow=hidden;points=[[0,0.5],[1,0.5]];portConstraint=eastwest;rotatable=0;whiteSpace=wrap;html=1;" parent="3vVMbSCnS11a-lVRG27g-38" vertex="1">
          <mxGeometry y="30" width="175" height="30" as="geometry" />
        </mxCell>
        <mxCell id="3vVMbSCnS11a-lVRG27g-40" value="branch2" style="text;strokeColor=none;fillColor=none;align=left;verticalAlign=middle;spacingLeft=4;spacingRight=4;overflow=hidden;points=[[0,0.5],[1,0.5]];portConstraint=eastwest;rotatable=0;whiteSpace=wrap;html=1;" parent="3vVMbSCnS11a-lVRG27g-38" vertex="1">
          <mxGeometry y="60" width="175" height="30" as="geometry" />
        </mxCell>
        <mxCell id="3vVMbSCnS11a-lVRG27g-41" value="branch3" style="text;strokeColor=none;fillColor=none;align=left;verticalAlign=middle;spacingLeft=4;spacingRight=4;overflow=hidden;points=[[0,0.5],[1,0.5]];portConstraint=eastwest;rotatable=0;whiteSpace=wrap;html=1;" parent="3vVMbSCnS11a-lVRG27g-38" vertex="1">
          <mxGeometry y="90" width="175" height="30" as="geometry" />
        </mxCell>
        <mxCell id="3vVMbSCnS11a-lVRG27g-42" value="&lt;b&gt;my-branch（发生改动）&lt;/b&gt;" style="text;strokeColor=#82b366;fillColor=#d5e8d4;align=left;verticalAlign=middle;spacingLeft=4;spacingRight=4;overflow=hidden;points=[[0,0.5],[1,0.5]];portConstraint=eastwest;rotatable=0;whiteSpace=wrap;html=1;strokeWidth=2;fontSize=14;opacity=50;" parent="3vVMbSCnS11a-lVRG27g-38" vertex="1">
          <mxGeometry y="120" width="175" height="30" as="geometry" />
        </mxCell>
        <mxCell id="3vVMbSCnS11a-lVRG27g-43" value="上游仓库" style="swimlane;fontStyle=0;childLayout=stackLayout;horizontal=1;startSize=30;horizontalStack=0;resizeParent=1;resizeParentMax=0;resizeLast=0;collapsible=1;marginBottom=0;whiteSpace=wrap;html=1;fillColor=#dae8fc;strokeColor=#6c8ebf;" parent="1" vertex="1">
          <mxGeometry x="940" y="230" width="140" height="130" as="geometry" />
        </mxCell>
        <mxCell id="3vVMbSCnS11a-lVRG27g-44" value="&lt;b&gt;master&lt;/b&gt;（包含了&lt;br&gt;my-branch 的改动）" style="text;strokeColor=#82b366;fillColor=#d5e8d4;align=left;verticalAlign=middle;spacingLeft=4;spacingRight=4;overflow=hidden;points=[[0,0.5],[1,0.5]];portConstraint=eastwest;rotatable=0;whiteSpace=wrap;html=1;opacity=60;" parent="3vVMbSCnS11a-lVRG27g-43" vertex="1">
          <mxGeometry y="30" width="140" height="40" as="geometry" />
        </mxCell>
        <mxCell id="3vVMbSCnS11a-lVRG27g-45" value="branch2" style="text;strokeColor=none;fillColor=none;align=left;verticalAlign=middle;spacingLeft=4;spacingRight=4;overflow=hidden;points=[[0,0.5],[1,0.5]];portConstraint=eastwest;rotatable=0;whiteSpace=wrap;html=1;" parent="3vVMbSCnS11a-lVRG27g-43" vertex="1">
          <mxGeometry y="70" width="140" height="30" as="geometry" />
        </mxCell>
        <mxCell id="3vVMbSCnS11a-lVRG27g-46" value="branch3" style="text;strokeColor=none;fillColor=none;align=left;verticalAlign=middle;spacingLeft=4;spacingRight=4;overflow=hidden;points=[[0,0.5],[1,0.5]];portConstraint=eastwest;rotatable=0;whiteSpace=wrap;html=1;" parent="3vVMbSCnS11a-lVRG27g-43" vertex="1">
          <mxGeometry y="100" width="140" height="30" as="geometry" />
        </mxCell>
        <mxCell id="3vVMbSCnS11a-lVRG27g-48" value="3. 将下游的更改合并到上游" style="text;html=1;align=center;verticalAlign=middle;resizable=0;points=[];autosize=1;strokeColor=none;fillColor=none;fontSize=14;" parent="1" vertex="1">
          <mxGeometry x="755" y="540" width="190" height="30" as="geometry" />
        </mxCell>
        <mxCell id="3vVMbSCnS11a-lVRG27g-50" style="edgeStyle=orthogonalEdgeStyle;rounded=0;orthogonalLoop=1;jettySize=auto;html=1;exitX=0.5;exitY=1;exitDx=0;exitDy=0;fontSize=14;entryX=0.476;entryY=1.111;entryDx=0;entryDy=0;entryPerimeter=0;" parent="1" source="3vVMbSCnS11a-lVRG27g-49" target="3vVMbSCnS11a-lVRG27g-46" edge="1">
          <mxGeometry relative="1" as="geometry">
            <mxPoint x="1006" y="420" as="targetPoint" />
            <Array as="points">
              <mxPoint x="687" y="510" />
              <mxPoint x="1007" y="510" />
            </Array>
          </mxGeometry>
        </mxCell>
        <mxCell id="3vVMbSCnS11a-lVRG27g-51" value="合并&lt;br&gt;my-branch 的更改" style="edgeLabel;html=1;align=center;verticalAlign=middle;resizable=0;points=[];fontSize=14;" parent="3vVMbSCnS11a-lVRG27g-50" vertex="1" connectable="0">
          <mxGeometry x="-0.1749" y="3" relative="1" as="geometry">
            <mxPoint x="-14" y="3" as="offset" />
          </mxGeometry>
        </mxCell>
        <mxCell id="3vVMbSCnS11a-lVRG27g-57" style="edgeStyle=orthogonalEdgeStyle;rounded=0;orthogonalLoop=1;jettySize=auto;html=1;entryX=0;entryY=0.5;entryDx=0;entryDy=0;fontSize=14;" parent="1" source="3vVMbSCnS11a-lVRG27g-49" target="3vVMbSCnS11a-lVRG27g-55" edge="1">
          <mxGeometry relative="1" as="geometry" />
        </mxCell>
        <mxCell id="3vVMbSCnS11a-lVRG27g-49" value="上游是否&lt;br style=&quot;font-size: 12px;&quot;&gt;接受该合并请求?" style="rhombus;whiteSpace=wrap;html=1;strokeWidth=1;fontSize=12;fillColor=#dae8fc;strokeColor=#6c8ebf;" parent="1" vertex="1">
          <mxGeometry x="610" y="430" width="155" height="60" as="geometry" />
        </mxCell>
        <mxCell id="3vVMbSCnS11a-lVRG27g-52" value="是" style="text;html=1;align=center;verticalAlign=middle;resizable=0;points=[];autosize=1;strokeColor=none;fillColor=none;fontSize=14;strokeWidth=2;opacity=60;" parent="1" vertex="1">
          <mxGeometry x="645" y="490" width="40" height="30" as="geometry" />
        </mxCell>
        <mxCell id="3vVMbSCnS11a-lVRG27g-59" value="更改&lt;br&gt;保留在 Fork 中" style="edgeStyle=orthogonalEdgeStyle;rounded=0;orthogonalLoop=1;jettySize=auto;html=1;entryX=1;entryY=0.5;entryDx=0;entryDy=0;fontSize=14;" parent="1" source="3vVMbSCnS11a-lVRG27g-55" target="3vVMbSCnS11a-lVRG27g-42" edge="1">
          <mxGeometry x="0.6137" relative="1" as="geometry">
            <Array as="points">
              <mxPoint x="920" y="460" />
              <mxPoint x="920" y="215" />
            </Array>
            <mxPoint as="offset" />
          </mxGeometry>
        </mxCell>
        <mxCell id="3vVMbSCnS11a-lVRG27g-55" value="拒绝合并" style="rounded=1;whiteSpace=wrap;html=1;strokeWidth=2;fontSize=14;opacity=60;fillColor=#f8cecc;strokeColor=#b85450;" parent="1" vertex="1">
          <mxGeometry x="800" y="440" width="100" height="40" as="geometry" />
        </mxCell>
        <mxCell id="3vVMbSCnS11a-lVRG27g-56" style="edgeStyle=orthogonalEdgeStyle;rounded=0;orthogonalLoop=1;jettySize=auto;html=1;exitX=0.5;exitY=1;exitDx=0;exitDy=0;fontSize=14;" parent="1" source="3vVMbSCnS11a-lVRG27g-55" target="3vVMbSCnS11a-lVRG27g-55" edge="1">
          <mxGeometry relative="1" as="geometry" />
        </mxCell>
        <mxCell id="3vVMbSCnS11a-lVRG27g-58" value="否" style="text;html=1;align=center;verticalAlign=middle;resizable=0;points=[];autosize=1;strokeColor=none;fillColor=none;fontSize=14;" parent="1" vertex="1">
          <mxGeometry x="747.5" y="460" width="40" height="30" as="geometry" />
        </mxCell>
        <mxCell id="SuPHsCyRzFUluhuoWeei-8" style="edgeStyle=orthogonalEdgeStyle;rounded=0;orthogonalLoop=1;jettySize=auto;html=1;exitX=0.5;exitY=1;exitDx=0;exitDy=0;entryX=0.5;entryY=0;entryDx=0;entryDy=0;" edge="1" parent="1" source="SuPHsCyRzFUluhuoWeei-1" target="SuPHsCyRzFUluhuoWeei-3">
          <mxGeometry relative="1" as="geometry" />
        </mxCell>
        <mxCell id="SuPHsCyRzFUluhuoWeei-1" value="审阅 PR" style="rounded=0;whiteSpace=wrap;html=1;fillColor=#dae8fc;strokeColor=#6c8ebf;" vertex="1" parent="1">
          <mxGeometry x="627.5" y="280" width="120" height="40" as="geometry" />
        </mxCell>
        <mxCell id="SuPHsCyRzFUluhuoWeei-11" style="edgeStyle=orthogonalEdgeStyle;rounded=0;orthogonalLoop=1;jettySize=auto;html=1;exitX=1;exitY=0.5;exitDx=0;exitDy=0;entryX=0;entryY=0.5;entryDx=0;entryDy=0;" edge="1" parent="1" source="SuPHsCyRzFUluhuoWeei-3" target="SuPHsCyRzFUluhuoWeei-7">
          <mxGeometry relative="1" as="geometry" />
        </mxCell>
        <mxCell id="SuPHsCyRzFUluhuoWeei-17" style="edgeStyle=orthogonalEdgeStyle;rounded=0;orthogonalLoop=1;jettySize=auto;html=1;exitX=0.5;exitY=1;exitDx=0;exitDy=0;entryX=0.5;entryY=0;entryDx=0;entryDy=0;" edge="1" parent="1" source="SuPHsCyRzFUluhuoWeei-3" target="3vVMbSCnS11a-lVRG27g-49">
          <mxGeometry relative="1" as="geometry" />
        </mxCell>
        <mxCell id="SuPHsCyRzFUluhuoWeei-3" value="是否有&lt;br&gt;修改意见?" style="rhombus;whiteSpace=wrap;html=1;fillColor=#dae8fc;strokeColor=#6c8ebf;" vertex="1" parent="1">
          <mxGeometry x="616.5" y="350" width="142" height="60" as="geometry" />
        </mxCell>
        <mxCell id="SuPHsCyRzFUluhuoWeei-10" style="edgeStyle=orthogonalEdgeStyle;rounded=0;orthogonalLoop=1;jettySize=auto;html=1;exitX=0.5;exitY=0;exitDx=0;exitDy=0;entryX=1;entryY=0.5;entryDx=0;entryDy=0;" edge="1" parent="1" source="SuPHsCyRzFUluhuoWeei-7" target="SuPHsCyRzFUluhuoWeei-1">
          <mxGeometry relative="1" as="geometry" />
        </mxCell>
        <mxCell id="SuPHsCyRzFUluhuoWeei-7" value="推送修改到&lt;br&gt;my-branch" style="rounded=0;whiteSpace=wrap;html=1;fillColor=#d5e8d4;strokeColor=#82b366;" vertex="1" parent="1">
          <mxGeometry x="800" y="360" width="100" height="40" as="geometry" />
        </mxCell>
        <mxCell id="SuPHsCyRzFUluhuoWeei-12" value="是" style="text;html=1;align=center;verticalAlign=middle;resizable=0;points=[];autosize=1;strokeColor=none;fillColor=none;" vertex="1" parent="1">
          <mxGeometry x="747.5" y="350" width="40" height="30" as="geometry" />
        </mxCell>
        <mxCell id="SuPHsCyRzFUluhuoWeei-13" value="否" style="text;html=1;align=center;verticalAlign=middle;resizable=0;points=[];autosize=1;strokeColor=none;fillColor=none;" vertex="1" parent="1">
          <mxGeometry x="685" y="400" width="40" height="30" as="geometry" />
        </mxCell>
      </root>
    </mxGraphModel>
  </diagram>
</mxfile>
